<svg width="160" height="39" viewBox="0 0 160 39" fill="none" xmlns="http://www.w3.org/2000/svg">
<g clip-path="url(#clip0_349_1285)">
<path d="M23.0182 10.7719C21.953 10.7719 20.9117 10.4561 20.0259 9.86424C19.1402 9.27243 18.4499 8.43124 18.0423 7.44708C17.6346 6.46293 17.5279 5.37996 17.7358 4.33519C17.9436 3.29042 18.4565 2.33078 19.2098 1.57754C19.963 0.824306 20.9227 0.311308 21.9675 0.10349C23.0123 -0.104328 24.0952 0.00233934 25.0793 0.409989C26.0635 0.817639 26.9047 1.508 27.4965 2.39371C28.0883 3.27943 28.4042 4.32073 28.4042 5.38597C28.4019 6.81371 27.8337 8.18229 26.8241 9.19185C25.8146 10.2014 24.4459 10.7696 23.0182 10.7719ZM23.0182 1.95148C22.3321 1.95148 21.6613 2.15491 21.0908 2.53611C20.5203 2.91731 20.0757 3.45915 19.8131 4.09306C19.5505 4.72698 19.4818 5.42447 19.6157 6.09743C19.7495 6.77039 20.0799 7.38857 20.5651 7.87375C21.0503 8.35892 21.6685 8.68935 22.3414 8.82321C23.0144 8.95707 23.7119 8.88833 24.3458 8.62575C24.9797 8.36318 25.5216 7.9186 25.9028 7.34809C26.284 6.77758 26.4874 6.10684 26.4874 5.42069C26.4874 4.5006 26.1219 3.61814 25.4713 2.96754C24.8207 2.31693 23.9383 1.95148 23.0182 1.95148Z" fill="#202020"/>
<path d="M23.0182 38.1352C21.953 38.1352 20.9117 37.8192 20.0259 37.2274C19.1402 36.6356 18.4499 35.7945 18.0423 34.8104C17.6346 33.8262 17.5279 32.7432 17.7358 31.6985C17.9436 30.6537 18.4565 29.694 19.2098 28.9407C19.963 28.1875 20.9227 27.6746 21.9675 27.4668C23.0123 27.259 24.0952 27.3656 25.0793 27.7733C26.0635 28.1809 26.9047 28.8712 27.4965 29.7569C28.0883 30.6426 28.4042 31.684 28.4042 32.7492C28.4019 34.177 27.8337 35.5456 26.8241 36.5551C25.8146 37.5647 24.4459 38.1329 23.0182 38.1352ZM23.0182 29.3147C22.3321 29.3147 21.6613 29.5182 21.0908 29.8994C20.5203 30.2806 20.0757 30.8223 19.8131 31.4562C19.5505 32.0902 19.4818 32.7877 19.6157 33.4607C19.7495 34.1337 20.0799 34.7519 20.5651 35.237C21.0503 35.7222 21.6685 36.0526 22.3414 36.1865C23.0144 36.3203 23.7119 36.2516 24.3458 35.989C24.9797 35.7265 25.5216 35.2818 25.9028 34.7113C26.284 34.1408 26.4874 33.47 26.4874 32.7839C26.4874 31.8638 26.1219 30.9814 25.4713 30.3308C24.8207 29.6802 23.9383 29.3147 23.0182 29.3147Z" fill="#202020"/>
<path d="M18.6036 33.7293H0V4.40576H18.6036V6.35719H1.95143V31.7778H18.6036V33.7293Z" fill="#202020"/>
<path d="M16.4267 27.6409L8.14398 18.7597L10.6852 16.392L16.5828 22.7233L36.366 4.11963L38.7424 6.65215L16.4267 27.6409Z" fill="#FF833E"/>
<path d="M51.9861 31.3358V6.7998H60.7285C68.1093 6.7998 72.6366 11.3965 72.6193 19.0374C72.6019 26.6784 68.1093 31.3358 60.6245 31.3358H51.9861ZM60.4163 26.9993C65.0998 26.9993 67.5369 24.5709 67.5369 19.0722C67.5369 13.5735 65.0997 11.2057 60.451 11.2057H57.0685V26.9993H60.4163Z" fill="#202020"/>
<path d="M73.5472 31.3358L82.0555 6.7998H88.5863L97.0598 31.3358H91.6045L89.7571 25.6723H80.8846L79.0373 31.3358H73.5472ZM88.4735 21.7087L85.4033 12.3245H85.2385L82.1682 21.7087H88.4735Z" fill="#202020"/>
<path d="M121.726 35.195H105.629V31.3701H121.726V35.195Z" fill="#202020"/>
<path d="M136.73 31.3358H131.648V6.7998H136.73V31.3358Z" fill="#202020"/>
<path d="M139.913 6.7998H160.009V11.0062H152.489V31.3358H147.442V11.0062H139.913V6.7998Z" fill="#202020"/>
</g>
<defs>
<clipPath id="clip0_349_1285">
<rect width="160" height="38.1353" fill="white"/>
</clipPath>
</defs>
</svg>
