<svg width="56" height="56" viewBox="0 0 56 56" fill="none" xmlns="http://www.w3.org/2000/svg">
<g id="&#235;&#160;&#136;&#236;&#157;&#180;&#236;&#150;&#180;_1" clip-path="url(#clip0_349_1265)">
<path id="Vector" d="M56 28.0005C55.9999 23.1744 54.7525 18.4303 52.3786 14.2284C50.0048 10.0266 46.5852 6.50956 42.4516 4.01869C38.318 1.52781 33.6108 0.147616 28.7867 0.0120309C23.9625 -0.123554 19.1852 0.990068 14.9182 3.24484C10.6513 5.49962 7.03953 8.819 4.43344 12.8809C1.82736 16.9429 0.315375 21.6094 0.044232 26.4279C-0.226911 31.2463 0.751976 36.053 2.88591 40.3817C5.01985 44.7104 8.23639 48.414 12.2235 51.1332V29.6132C12.2247 25.8017 13.6055 22.1195 16.1106 19.2469C18.6158 16.3743 22.076 14.5056 25.8519 13.9859C25.7838 13.8431 25.7189 13.7004 25.6475 13.5608C25.3125 12.8994 24.9376 12.259 24.5248 11.6431C24.464 11.5511 24.4227 11.4477 24.4033 11.3392C24.3839 11.2307 24.3868 11.1193 24.4118 11.012C24.4369 10.9046 24.4835 10.8035 24.549 10.7148C24.6144 10.6261 24.6972 10.5516 24.7924 10.496C24.8875 10.4404 24.993 10.4047 25.1024 10.3912C25.2118 10.3777 25.3228 10.3866 25.4287 10.4174C25.5345 10.4483 25.633 10.5004 25.718 10.5705C25.8031 10.6406 25.8729 10.7274 25.9233 10.8254C26.5586 11.7799 27.1018 12.7925 27.5457 13.8496C27.6982 13.8496 27.8475 13.8496 28 13.8496H28.2953C28.4855 12.8078 28.8827 11.8148 29.4635 10.9293C29.5754 10.7472 29.7531 10.6152 29.9598 10.5608C30.1665 10.5064 30.3862 10.5338 30.5732 10.6372C30.7578 10.7468 30.8919 10.9246 30.9466 11.1323C31.0012 11.3399 30.972 11.5607 30.8652 11.747C30.6707 12.0387 30.4983 12.3446 30.3493 12.662C30.3493 12.6847 30.2617 12.8632 30.2682 12.8372C30.2682 12.8859 30.2325 12.9346 30.213 12.9833C30.1503 13.1455 30.0951 13.311 30.0475 13.4797C29.9989 13.642 29.9567 13.8042 29.921 13.9697C33.7434 14.4386 37.2623 16.2894 39.8145 19.1734C42.3667 22.0573 43.7759 25.7751 43.7766 29.6262V51.1332C47.5454 48.5659 50.6293 45.116 52.7598 41.0842C54.8902 37.0523 56.0026 32.5607 56 28.0005Z" fill="#FF833E"/>
<path id="Vector_2" d="M25.9136 10.8251C25.8632 10.7271 25.7933 10.6403 25.7083 10.5702C25.6232 10.5 25.5248 10.448 25.4189 10.4171C25.3131 10.3863 25.2021 10.3774 25.0927 10.3909C24.9833 10.4044 24.8778 10.44 24.7826 10.4957C24.6875 10.5513 24.6046 10.6258 24.5392 10.7145C24.4738 10.8032 24.4271 10.9043 24.4021 11.0117C24.377 11.119 24.3741 11.2304 24.3935 11.3389C24.413 11.4474 24.4543 11.5508 24.515 11.6428C24.9278 12.2587 25.3027 12.8991 25.6377 13.5605C25.7091 13.7001 25.774 13.8428 25.8422 13.9856C26.4072 13.9105 26.9759 13.8651 27.5457 13.8493C27.0987 12.7918 26.5522 11.7792 25.9136 10.8251Z" fill="#202020"/>
<path id="Vector_3" d="M30.2682 12.8232C30.2775 12.807 30.2851 12.7898 30.2906 12.772C30.2854 12.79 30.2779 12.8072 30.2682 12.8232Z" fill="#202020"/>
<path id="Vector_4" d="M30.0475 13.4663C30.0973 13.2976 30.1524 13.1321 30.213 12.9698C30.2325 12.9211 30.252 12.8725 30.2682 12.8238C30.278 12.8076 30.2857 12.7901 30.2909 12.7719C30.2853 12.79 30.2777 12.8074 30.2682 12.8238C30.2682 12.8498 30.3363 12.6713 30.3493 12.6486C30.4983 12.3311 30.6707 12.0253 30.8652 11.7335C30.972 11.5472 31.0012 11.3265 30.9466 11.1188C30.8919 10.9112 30.7578 10.7334 30.5732 10.6238C30.3862 10.5204 30.1665 10.493 29.9598 10.5474C29.7531 10.6018 29.5753 10.7337 29.4635 10.9158C28.8827 11.8014 28.4854 12.7944 28.2953 13.8362C28.8377 13.8463 29.3792 13.8842 29.9177 13.9498C29.9567 13.7908 29.9989 13.6285 30.0475 13.4663Z" fill="#202020"/>
<path id="Vector_5" d="M43.7766 47.239V29.6129C43.7759 25.7618 42.3667 22.0439 39.8145 19.16C37.2623 16.2761 33.7434 14.4253 29.921 13.9564C29.8885 14.1024 29.8626 14.2516 29.8366 14.3977C29.8366 14.4398 29.8171 14.5631 29.8139 14.5859C29.8139 14.6572 29.8139 14.7254 29.7977 14.7968C29.7977 14.9817 29.7977 15.1699 29.7977 15.3549C29.7977 15.57 29.7122 15.7764 29.5601 15.9285C29.4079 16.0806 29.2016 16.1661 28.9864 16.1661C28.7713 16.1661 28.565 16.0806 28.4128 15.9285C28.2607 15.7764 28.1752 15.57 28.1752 15.3549C28.1736 14.8477 28.2192 14.3415 28.3115 13.8428H28.0162C27.8637 13.8428 27.7144 13.8428 27.5619 13.8428C27.7307 14.2354 27.8864 14.6345 28.0324 15.0401C28.0608 15.1428 28.0686 15.2501 28.0555 15.3558C28.0424 15.4615 28.0086 15.5637 27.956 15.6563C27.9034 15.749 27.8331 15.8304 27.7491 15.8958C27.665 15.9613 27.5689 16.0096 27.4662 16.0379C27.3635 16.0663 27.2562 16.0741 27.1505 16.061C27.0448 16.0479 26.9427 16.014 26.85 15.9615C26.7574 15.9089 26.676 15.8386 26.6105 15.7545C26.545 15.6705 26.4968 15.5744 26.4684 15.4717C26.4035 15.29 26.3354 15.105 26.2672 14.9233L26.1602 14.654L26.1115 14.5404C26.0304 14.3522 25.946 14.1673 25.8584 13.9791C22.0825 14.4987 18.6222 16.3675 16.1171 19.24C13.6119 22.1126 12.2312 25.7949 12.2299 29.6064V51.1329C13.4673 51.9743 14.7693 52.7164 16.1238 53.3523V52.2718C16.1238 51.3911 16.2973 50.5191 16.6344 49.7056C16.9715 48.892 17.4656 48.1528 18.0885 47.5303C18.7113 46.9077 19.4507 46.414 20.2644 46.0773C21.0782 45.7406 21.9503 45.5675 22.8309 45.5679H33.1172C34.8954 45.5679 36.6009 46.2741 37.8587 47.5312C39.1164 48.7883 39.8235 50.4935 39.8243 52.2718V53.3848C41.2037 52.7424 42.5287 51.9893 43.7863 51.1329V47.239H43.7766Z" fill="#202020"/>
<path id="Vector_6" d="M26.0855 14.5242C26.118 14.5956 26.1212 14.6053 26.0855 14.5502L26.1342 14.6638L26.2413 14.9331C26.3094 15.1148 26.3775 15.2998 26.4424 15.4815C26.4708 15.5842 26.5191 15.6803 26.5846 15.7643C26.65 15.8483 26.7314 15.9187 26.8241 15.9712C26.9167 16.0238 27.0188 16.0576 27.1246 16.0707C27.2303 16.0839 27.3376 16.076 27.4402 16.0477C27.5429 16.0194 27.6391 15.9711 27.7231 15.9056C27.8071 15.8401 27.8774 15.7587 27.93 15.6661C27.9826 15.5734 28.0164 15.4713 28.0295 15.3656C28.0426 15.2599 28.0348 15.1526 28.0065 15.0499C27.8637 14.6443 27.7047 14.2452 27.536 13.8525C26.9661 13.8683 26.3975 13.9138 25.8324 13.9888C25.92 14.177 26.0044 14.362 26.0855 14.5502V14.5242Z" fill="#202020"/>
<path id="Vector_7" d="M26.0855 14.5239V14.5466C26.1212 14.605 26.118 14.5953 26.0855 14.5239Z" fill="#202020"/>
<path id="Vector_8" d="M28.9702 16.1661C29.1843 16.1628 29.3887 16.0762 29.5401 15.9248C29.6915 15.7734 29.7781 15.569 29.7814 15.3549C29.7814 15.1699 29.7814 14.9817 29.7814 14.7968C29.7814 14.7254 29.7814 14.6572 29.7977 14.5859C29.7977 14.5631 29.8171 14.4398 29.8204 14.3977V14.4561C29.8204 14.3814 29.8204 14.3749 29.8204 14.3977C29.8463 14.2516 29.8723 14.1024 29.9047 13.9564C29.3662 13.8907 28.8247 13.8528 28.2823 13.8428C28.19 14.3415 28.1444 14.8477 28.146 15.3549C28.1486 15.5715 28.2367 15.7783 28.391 15.9303C28.5454 16.0822 28.7536 16.167 28.9702 16.1661Z" fill="#202020"/>
<path id="Vector_9" d="M29.8269 14.4557V14.3973C29.8399 14.3746 29.8399 14.3811 29.8269 14.4557Z" fill="#202020"/>
<path id="Vector_10" d="M39.8146 53.3848V52.2718C39.8137 50.4935 39.1067 48.7883 37.849 47.5312C36.5912 46.2741 34.8857 45.5679 33.1074 45.5679H22.8212C21.9405 45.5674 21.0685 45.7405 20.2547 46.0772C19.441 46.414 18.7016 46.9077 18.0787 47.5302C17.4559 48.1528 16.9618 48.892 16.6247 49.7056C16.2876 50.5191 16.114 51.3911 16.114 52.2718V53.3523C19.82 55.0887 23.8616 55.9915 27.9542 55.9972C32.0468 56.0028 36.0909 55.111 39.8016 53.3848H39.8146Z" fill="white"/>
<path id="Vector_11" d="M20.5108 37.4655C19.1092 37.4655 17.739 37.0496 16.5737 36.2705C15.4085 35.4914 14.5006 34.3842 13.965 33.0889C13.4293 31.7936 13.29 30.3685 13.5646 28.994C13.8393 27.6195 14.5155 26.3573 15.5078 25.3673C16.5 24.3773 17.7637 23.704 19.1389 23.4325C20.514 23.161 21.9388 23.3036 23.2329 23.8422C24.5269 24.3808 25.6321 25.2913 26.4085 26.4583C27.1849 27.6253 27.5976 28.9964 27.5944 30.3981C27.5875 32.2732 26.8385 34.0693 25.5111 35.3936C24.1837 36.718 22.3859 37.4629 20.5108 37.4655ZM20.5108 24.2718C19.3031 24.2718 18.1224 24.6298 17.1179 25.3004C16.1135 25.9711 15.3303 26.9244 14.8674 28.0399C14.4045 29.1555 14.2826 30.3832 14.517 31.568C14.7514 32.7528 15.3318 33.8415 16.1847 34.6966C17.0375 35.5518 18.1247 36.135 19.3089 36.3726C20.4931 36.6102 21.7211 36.4915 22.8378 36.0315C23.9546 35.5716 24.91 34.7909 25.5833 33.7883C26.2566 32.7856 26.6177 31.6059 26.6209 30.3981C26.6227 29.5945 26.4659 28.7984 26.1596 28.0554C25.8534 27.3124 25.4036 26.6371 24.8361 26.0681C24.2686 25.4991 23.5945 25.0475 22.8523 24.7393C22.1101 24.4311 21.3145 24.2722 20.5108 24.2718Z" fill="white"/>
<path id="Vector_12" d="M35.408 37.4655C34.0062 37.4661 32.6357 37.0508 31.47 36.2721C30.3044 35.4934 29.396 34.3864 28.8598 33.0911C28.3237 31.7959 28.1839 30.3707 28.4581 28.996C28.7324 27.6212 29.4084 26.3588 30.4006 25.3685C31.3927 24.3781 32.6564 23.7045 34.0316 23.4327C35.4068 23.161 36.8318 23.3034 38.126 23.8419C39.4203 24.3804 40.5257 25.2909 41.3022 26.4579C42.0787 27.625 42.4915 28.9963 42.4883 30.3981C42.4815 32.2726 41.7329 34.0682 40.4062 35.3925C39.0795 36.7167 37.2825 37.462 35.408 37.4655ZM35.408 24.2718C34.2001 24.2712 33.0191 24.6286 32.0142 25.2989C31.0094 25.9691 30.2257 26.9222 29.7623 28.0377C29.2988 29.1532 29.1764 30.381 29.4105 31.566C29.6446 32.751 30.2247 33.84 31.0774 34.6955C31.9302 35.551 33.0174 36.1345 34.2016 36.3724C35.3859 36.6102 36.6141 36.4917 37.731 36.0318C38.848 35.572 39.8036 34.7913 40.477 33.7886C41.1505 32.7859 41.5116 31.606 41.5149 30.3981C41.5166 29.5948 41.3599 28.7989 41.0539 28.0562C40.7478 27.3134 40.2983 26.6382 39.7312 26.0692C39.164 25.5003 38.4903 25.0487 37.7485 24.7402C37.0067 24.4318 36.2114 24.2726 35.408 24.2718Z" fill="white"/>
<path id="Vector_13" d="M28.808 29.895H27.1077V30.8685H28.808V29.895Z" fill="white"/>
<path id="Vector_14" d="M22.8212 34.068C23.8391 34.068 24.6643 33.2428 24.6643 32.2249C24.6643 31.207 23.8391 30.3818 22.8212 30.3818C21.8033 30.3818 20.9781 31.207 20.9781 32.2249C20.9781 33.2428 21.8033 34.068 22.8212 34.068Z" fill="white"/>
<path id="Vector_15" d="M33.5617 34.068C34.5796 34.068 35.4048 33.2428 35.4048 32.2249C35.4048 31.207 34.5796 30.3818 33.5617 30.3818C32.5438 30.3818 31.7186 31.207 31.7186 32.2249C31.7186 33.2428 32.5438 34.068 33.5617 34.068Z" fill="white"/>
<path id="Vector_16" d="M27.9611 42.0632C31.1367 42.0632 33.711 41.0578 33.711 39.8177C33.711 38.5776 31.1367 37.5723 27.9611 37.5723C24.7855 37.5723 22.2112 38.5776 22.2112 39.8177C22.2112 41.0578 24.7855 42.0632 27.9611 42.0632Z" fill="#FF833E"/>
</g>
<defs>
<clipPath id="clip0_349_1265">
<rect width="56" height="56" fill="white"/>
</clipPath>
</defs>
</svg>
