<svg width="14" height="15" viewBox="0 0 14 15" fill="none" xmlns="http://www.w3.org/2000/svg">
<path fill-rule="evenodd" clip-rule="evenodd" d="M7 0C3.2 0 0 3.21871 0 7.04094C0 10.8632 3.2 14.0819 7 14.0819C10.8 14.0819 14 10.9637 14 7.04094C14 3.11813 10.9 0 7 0ZM6.50022 3.0175H7.50022V8.04674H6.50022V3.0175ZM7.00096 11.2655C6.60096 11.2655 6.20095 10.8632 6.20095 10.4608C6.20095 10.0585 6.50096 9.65614 7.00096 9.65614C7.40096 9.65614 7.80096 10.0585 7.80096 10.4608C7.80096 10.8632 7.40096 11.2655 7.00096 11.2655Z" fill="#FF2424"/>
</svg>
