<svg width="27" height="27" viewBox="0 0 27 27" fill="none" xmlns="http://www.w3.org/2000/svg">
<path fill-rule="evenodd" clip-rule="evenodd" d="M13.5 3.98077C11.4156 3.98077 9.72581 5.6597 9.72581 7.73077C9.72581 9.80184 11.4156 11.4808 13.5 11.4808C15.5844 11.4808 17.2742 9.80184 17.2742 7.73077C17.2742 5.6597 15.5844 3.98077 13.5 3.98077ZM7.98387 7.73077C7.98387 4.70382 10.4535 2.25 13.5 2.25C16.5465 2.25 19.0161 4.70382 19.0161 7.73077C19.0161 10.7577 16.5465 13.2115 13.5 13.2115C10.4535 13.2115 7.98387 10.7577 7.98387 7.73077Z" fill="#C6C6C6"/>
<path fill-rule="evenodd" clip-rule="evenodd" d="M10.6494 17.25C8.21525 17.25 6.24194 19.2107 6.24194 21.6293C6.24194 21.7563 6.26529 21.8459 6.28978 21.8981C6.31046 21.9422 6.32819 21.9547 6.34298 21.9627C7.01986 22.3286 8.91767 23.0192 13.5 23.0192C18.0823 23.0192 19.9801 22.3286 20.657 21.9627C20.6718 21.9547 20.6895 21.9422 20.7102 21.8981C20.7347 21.8459 20.7581 21.7563 20.7581 21.6293C20.7581 19.2107 18.7848 17.25 16.3506 17.25H10.6494ZM4.5 21.6293C4.5 18.2548 7.2532 15.5192 10.6494 15.5192H16.3506C19.7468 15.5192 22.5 18.2548 22.5 21.6293C22.5 22.2487 22.2743 23.0587 21.4896 23.4829C20.4502 24.0449 18.2203 24.75 13.5 24.75C8.77966 24.75 6.54982 24.0449 5.51038 23.4829C4.72571 23.0587 4.5 22.2487 4.5 21.6293Z" fill="#C6C6C6"/>
</svg>
