<svg width="225" height="54" viewBox="0 0 225 54" fill="none" xmlns="http://www.w3.org/2000/svg">
<g clip-path="url(#clip0_319_412)">
<path d="M33.1664 15.0852C31.6746 15.0852 30.2164 14.6429 28.976 13.8141C27.7356 12.9853 26.7688 11.8072 26.1979 10.429C25.6271 9.05077 25.4777 7.53414 25.7687 6.07101C26.0597 4.60788 26.7781 3.26398 27.833 2.20912C28.8878 1.15426 30.2318 0.435843 31.695 0.144808C33.1581 -0.146226 34.6746 0.00315401 36.0529 0.574039C37.4311 1.14492 38.6091 2.11172 39.4379 3.35211C40.2667 4.59249 40.7091 6.05076 40.7091 7.54256C40.7059 9.54201 39.9102 11.4586 38.4963 12.8724C37.0825 14.2863 35.1659 15.0819 33.1664 15.0852ZM33.1664 2.7328C32.2055 2.7328 31.2662 3.01768 30.4673 3.55152C29.6683 4.08537 29.0456 4.84417 28.6779 5.73193C28.3102 6.61968 28.2139 7.59647 28.4014 8.53891C28.5889 9.48134 29.0516 10.3471 29.731 11.0265C30.4105 11.706 31.2762 12.1687 32.2186 12.3562C33.1611 12.5436 34.1379 12.4474 35.0256 12.0797C35.9134 11.7119 36.6722 11.0893 37.206 10.2904C37.7399 9.49142 38.0248 8.55209 38.0248 7.59119C38.0248 6.30266 37.513 5.06683 36.6018 4.15571C35.6907 3.24458 34.4549 2.7328 33.1664 2.7328Z" fill="#202020"/>
<path d="M33.1664 53.4058C31.6746 53.4058 30.2164 52.9634 28.976 52.1346C27.7356 51.3058 26.7688 50.1279 26.1979 48.7497C25.6271 47.3714 25.4777 45.8548 25.7687 44.3917C26.0597 42.9286 26.7781 41.5845 27.833 40.5297C28.8878 39.4748 30.2318 38.7565 31.695 38.4655C33.1581 38.1745 34.6746 38.3238 36.0529 38.8947C37.4311 39.4656 38.6091 40.4323 39.4379 41.6726C40.2667 42.913 40.7091 44.3714 40.7091 45.8632C40.7059 47.8627 39.9102 49.7793 38.4963 51.1931C37.0825 52.6069 35.1659 53.4026 33.1664 53.4058ZM33.1664 41.0533C32.2055 41.0533 31.2662 41.3384 30.4673 41.8722C29.6683 42.406 29.0456 43.1647 28.6779 44.0525C28.3102 44.9402 28.2139 45.9171 28.4014 46.8596C28.5889 47.802 29.0516 48.6677 29.731 49.3472C30.4105 50.0267 31.2762 50.4894 32.2186 50.6768C33.1611 50.8643 34.1379 50.7681 35.0256 50.4003C35.9134 50.0326 36.6722 49.4099 37.206 48.6109C37.7399 47.8119 38.0248 46.8726 38.0248 45.9117C38.0248 44.6232 37.513 43.3875 36.6018 42.4764C35.6907 41.5653 34.4549 41.0533 33.1664 41.0533Z" fill="#202020"/>
<path d="M26.984 47.2357H0.930908V6.17017H26.984V8.90301H3.66375V44.5029H26.984V47.2357Z" fill="#202020"/>
<path d="M23.9353 38.7092L12.3359 26.2717L15.8947 22.9558L24.154 31.8224L51.859 5.76929L55.1869 9.31591L23.9353 38.7092Z" fill="#FF833E"/>
<path d="M73.7339 43.8835V9.52246H85.977C96.3132 9.52246 102.653 15.9598 102.629 26.6604C102.605 37.361 96.3133 43.8835 85.8313 43.8835H73.7339ZM85.5398 37.8105C92.0986 37.8105 95.5116 34.4096 95.5116 26.709C95.5116 19.0085 92.0986 15.6926 85.5883 15.6926H80.8514V37.8105H85.5398Z" fill="#202020"/>
<path d="M103.929 43.8835L115.844 9.52246H124.99L136.856 43.8835H129.217L126.63 35.9521H114.204L111.617 43.8835H103.929ZM124.832 30.4013L120.532 17.2594H120.302L116.002 30.4013H124.832Z" fill="#202020"/>
<path d="M171.4 49.2884H148.857V43.932H171.4V49.2884Z" fill="#202020"/>
<path d="M192.412 43.8835H185.295V9.52246H192.412V43.8835Z" fill="#202020"/>
<path d="M196.87 9.52246H225.012V15.4132H214.482V43.8835H207.413V15.4132H196.87V9.52246Z" fill="#202020"/>
</g>
<defs>
<clipPath id="clip0_319_412">
<rect width="224.069" height="53.4059" fill="white" transform="translate(0.930908)"/>
</clipPath>
</defs>
</svg>
