<svg width="152" height="37" viewBox="0 0 152 37" fill="none" xmlns="http://www.w3.org/2000/svg">
<g clip-path="url(#clip0_381_416)">
<path d="M21.8676 10.2333C20.8556 10.2333 19.8664 9.93326 19.025 9.37103C18.1835 8.80881 17.5277 8.00967 17.1405 7.07473C16.7532 6.13978 16.6519 5.11096 16.8493 4.11843C17.0467 3.1259 17.534 2.21424 18.2496 1.49867C18.9652 0.783091 19.8769 0.295743 20.8694 0.0983154C21.862 -0.0991117 22.8907 0.00222237 23.8257 0.38949C24.7606 0.776757 25.5598 1.4326 26.122 2.27403C26.6842 3.11545 26.9843 4.10469 26.9843 5.11667C26.9821 6.47302 26.4423 7.77317 25.4832 8.73226C24.5242 9.69134 23.224 10.2311 21.8676 10.2333ZM21.8676 1.85391C21.2158 1.85391 20.5786 2.04716 20.0366 2.4093C19.4946 2.77144 19.0722 3.28619 18.8228 3.88841C18.5733 4.49063 18.508 5.15324 18.6352 5.79256C18.7624 6.43187 19.0763 7.01914 19.5372 7.48006C19.9981 7.94098 20.5854 8.25488 21.2247 8.38204C21.864 8.50921 22.5266 8.44391 23.1288 8.19447C23.7311 7.94502 24.2458 7.52267 24.608 6.98069C24.9701 6.4387 25.1634 5.8015 25.1634 5.14966C25.1634 4.27557 24.8161 3.43723 24.1981 2.81916C23.58 2.20109 22.7417 1.85391 21.8676 1.85391Z" fill="#202020"/>
<path d="M21.8676 36.2284C20.8556 36.2284 19.8664 35.9283 19.025 35.366C18.1835 34.8038 17.5277 34.0048 17.1405 33.0698C16.7532 32.1349 16.6519 31.1061 16.8493 30.1135C17.0467 29.121 17.534 28.2093 18.2496 27.4937C18.9652 26.7781 19.8769 26.2909 20.8694 26.0934C21.862 25.896 22.8907 25.9973 23.8257 26.3846C24.7606 26.7719 25.5598 27.4276 26.122 28.269C26.6842 29.1105 26.9843 30.0998 26.9843 31.1118C26.9821 32.4681 26.4423 33.7683 25.4832 34.7274C24.5242 35.6865 23.224 36.2262 21.8676 36.2284ZM21.8676 27.8489C21.2158 27.8489 20.5786 28.0423 20.0366 28.4044C19.4946 28.7666 19.0722 29.2812 18.8228 29.8834C18.5733 30.4856 18.508 31.1484 18.6352 31.7877C18.7624 32.427 19.0763 33.0143 19.5372 33.4752C19.9981 33.9361 20.5854 34.25 21.2247 34.3772C21.864 34.5043 22.5266 34.439 23.1288 34.1896C23.7311 33.9401 24.2458 33.5177 24.608 32.9757C24.9701 32.4337 25.1634 31.7965 25.1634 31.1447C25.1634 30.2706 24.8161 29.4323 24.1981 28.8143C23.58 28.1962 22.7417 27.8489 21.8676 27.8489Z" fill="#202020"/>
<path d="M17.6735 32.0429H0V4.18555H17.6735V6.03941H1.85386V30.189H17.6735V32.0429Z" fill="#202020"/>
<path d="M15.6049 26.259L7.73633 17.8219L10.1505 15.5725L15.7532 21.5873L34.5473 3.91382L36.8048 6.31972L15.6049 26.259Z" fill="#FF833E"/>
<path d="M49.3867 29.7689V6.45972H57.692C64.7037 6.45972 69.0047 10.8266 68.9882 18.0855C68.9717 25.3444 64.7037 29.7689 57.5931 29.7689H49.3867ZM57.3954 25.6493C61.8447 25.6493 64.1599 23.3422 64.1599 18.1185C64.1599 12.8947 61.8446 10.6453 57.4283 10.6453H54.215V25.6493H57.3954Z" fill="#202020"/>
<path d="M69.8701 29.7689L77.9529 6.45972H84.1572L92.2071 29.7689H87.0245L85.2695 24.3886H76.8406L75.0857 29.7689H69.8701ZM84.0501 20.6232L81.1334 11.7082H80.9768L78.0601 20.6232H84.0501Z" fill="#202020"/>
<path d="M115.64 33.4353H100.348V29.8018H115.64V33.4353Z" fill="#202020"/>
<path d="M129.894 29.7689H125.065V6.45972H129.894V29.7689Z" fill="#202020"/>
<path d="M132.918 6.45972H152.009V10.4558H144.865V29.7689H140.07V10.4558H132.918V6.45972Z" fill="#202020"/>
</g>
<defs>
<clipPath id="clip0_381_416">
<rect width="152" height="36.2285" fill="white"/>
</clipPath>
</defs>
</svg>
