<svg width="25" height="25" viewBox="0 0 25 25" fill="none" xmlns="http://www.w3.org/2000/svg">
<path fill-rule="evenodd" clip-rule="evenodd" d="M7.41071 6.08966C7.41071 3.87698 9.20957 2.08325 11.4286 2.08325H13.5714C15.7904 2.08325 17.5893 3.87698 17.5893 6.08966V8.74279C18.1135 8.78436 18.6021 8.82648 19.0296 8.86511C20.4118 8.99001 21.509 10.0737 21.6346 11.4577C21.7466 12.6926 21.875 14.3894 21.875 15.705C21.875 17.0206 21.7466 18.7175 21.6346 19.9524C21.509 21.3363 20.4118 22.4201 19.0296 22.545C17.293 22.7019 14.5482 22.9166 12.5 22.9166C10.4518 22.9166 7.70696 22.7019 5.97043 22.545C4.58816 22.4201 3.49096 21.3363 3.36539 19.9524C3.25335 18.7175 3.125 17.0206 3.125 15.705C3.125 14.3894 3.25335 12.6926 3.36539 11.4577C3.49096 10.0737 4.58816 8.99001 5.97043 8.86511C6.3979 8.82648 6.88647 8.78436 7.41071 8.74279V6.08966ZM8.26725 10.2848C8.27153 10.2845 8.27581 10.2842 8.28008 10.2839C9.68868 10.1814 11.2402 10.0961 12.5 10.0961C13.7598 10.0961 15.3113 10.1814 16.7199 10.2839C16.7242 10.2842 16.7285 10.2845 16.7328 10.2848C17.5206 10.3422 18.2632 10.405 18.8845 10.4611C19.4994 10.5167 19.9789 10.9947 20.034 11.6021C20.1455 12.8311 20.2679 14.4667 20.2679 15.705C20.2679 16.9433 20.1455 18.579 20.034 19.808C19.9789 20.4154 19.4994 20.8934 18.8845 20.949C17.1497 21.1057 14.4687 21.314 12.5 21.314C10.5313 21.314 7.8503 21.1057 6.11547 20.949C5.50065 20.8934 5.02111 20.4154 4.966 19.808C4.8545 18.579 4.73214 16.9433 4.73214 15.705C4.73214 14.4667 4.8545 12.8311 4.966 11.6021C5.02111 10.9947 5.50065 10.5167 6.11547 10.4611C6.73677 10.405 7.47942 10.3422 8.26725 10.2848ZM15.9821 8.62687C14.7918 8.55033 13.5537 8.49351 12.5 8.49351C11.4463 8.49351 10.2082 8.55033 9.01786 8.62687V6.08966C9.01786 4.76205 10.0972 3.68582 11.4286 3.68582H13.5714C14.9028 3.68582 15.9821 4.76205 15.9821 6.08966V8.62687ZM12.5 13.8354C12.9438 13.8354 13.3036 14.1941 13.3036 14.6367V16.7734C13.3036 17.216 12.9438 17.5747 12.5 17.5747C12.0562 17.5747 11.6964 17.216 11.6964 16.7734V14.6367C11.6964 14.1941 12.0562 13.8354 12.5 13.8354Z" fill="#C6C6C6"/>
</svg>
